<mxfile host="app.diagrams.net" agent="Mozilla/5.0 (Windows NT 10.0; Win64; x64) AppleWebKit/537.36 (KHTML, like Gecko) Chrome/131.0.0.0 Safari/537.36" version="25.0.1">
  <diagram name="Page-1" id="1dQStJ-P53JUmUeJQX6j">
    <mxGraphModel dx="1690" dy="572" grid="0" gridSize="10" guides="1" tooltips="1" connect="1" arrows="1" fold="1" page="0" pageScale="1" pageWidth="850" pageHeight="1100" math="0" shadow="0">
      <root>
        <mxCell id="0" />
        <mxCell id="1" parent="0" />
        <mxCell id="ywZ4EU8CJQfHJGonzBJp-8" value=":Room" style="shape=umlLifeline;perimeter=lifelinePerimeter;whiteSpace=wrap;html=1;container=1;dropTarget=0;collapsible=0;recursiveResize=0;outlineConnect=0;portConstraint=eastwest;newEdgeStyle={&quot;curved&quot;:0,&quot;rounded&quot;:0};" vertex="1" parent="1">
          <mxGeometry x="112" y="27" width="100" height="538" as="geometry" />
        </mxCell>
        <mxCell id="ywZ4EU8CJQfHJGonzBJp-13" value="" style="html=1;points=[[0,0,0,0,5],[0,1,0,0,-5],[1,0,0,0,5],[1,1,0,0,-5]];perimeter=orthogonalPerimeter;outlineConnect=0;targetShapes=umlLifeline;portConstraint=eastwest;newEdgeStyle={&quot;curved&quot;:0,&quot;rounded&quot;:0};" vertex="1" parent="ywZ4EU8CJQfHJGonzBJp-8">
          <mxGeometry x="45" y="74" width="10" height="224" as="geometry" />
        </mxCell>
        <mxCell id="ywZ4EU8CJQfHJGonzBJp-9" value=":Customer" style="shape=umlLifeline;perimeter=lifelinePerimeter;whiteSpace=wrap;html=1;container=1;dropTarget=0;collapsible=0;recursiveResize=0;outlineConnect=0;portConstraint=eastwest;newEdgeStyle={&quot;curved&quot;:0,&quot;rounded&quot;:0};" vertex="1" parent="1">
          <mxGeometry x="-113" y="25" width="100" height="557" as="geometry" />
        </mxCell>
        <mxCell id="ywZ4EU8CJQfHJGonzBJp-12" value="" style="html=1;points=[[0,0,0,0,5],[0,1,0,0,-5],[1,0,0,0,5],[1,1,0,0,-5]];perimeter=orthogonalPerimeter;outlineConnect=0;targetShapes=umlLifeline;portConstraint=eastwest;newEdgeStyle={&quot;curved&quot;:0,&quot;rounded&quot;:0};" vertex="1" parent="ywZ4EU8CJQfHJGonzBJp-9">
          <mxGeometry x="45" y="65" width="10" height="468" as="geometry" />
        </mxCell>
        <mxCell id="ywZ4EU8CJQfHJGonzBJp-10" value=":Transaction" style="shape=umlLifeline;perimeter=lifelinePerimeter;whiteSpace=wrap;html=1;container=1;dropTarget=0;collapsible=0;recursiveResize=0;outlineConnect=0;portConstraint=eastwest;newEdgeStyle={&quot;curved&quot;:0,&quot;rounded&quot;:0};" vertex="1" parent="1">
          <mxGeometry x="530" y="27" width="100" height="572" as="geometry" />
        </mxCell>
        <mxCell id="ywZ4EU8CJQfHJGonzBJp-11" value=":Administration" style="shape=umlLifeline;perimeter=lifelinePerimeter;whiteSpace=wrap;html=1;container=1;dropTarget=0;collapsible=0;recursiveResize=0;outlineConnect=0;portConstraint=eastwest;newEdgeStyle={&quot;curved&quot;:0,&quot;rounded&quot;:0};" vertex="1" parent="1">
          <mxGeometry x="341" y="27" width="100" height="543" as="geometry" />
        </mxCell>
        <mxCell id="ywZ4EU8CJQfHJGonzBJp-28" value="" style="html=1;points=[[0,0,0,0,5],[0,1,0,0,-5],[1,0,0,0,5],[1,1,0,0,-5]];perimeter=orthogonalPerimeter;outlineConnect=0;targetShapes=umlLifeline;portConstraint=eastwest;newEdgeStyle={&quot;curved&quot;:0,&quot;rounded&quot;:0};" vertex="1" parent="ywZ4EU8CJQfHJGonzBJp-11">
          <mxGeometry x="45" y="257" width="10" height="92" as="geometry" />
        </mxCell>
        <mxCell id="ywZ4EU8CJQfHJGonzBJp-34" value="" style="html=1;points=[[0,0,0,0,5],[0,1,0,0,-5],[1,0,0,0,5],[1,1,0,0,-5]];perimeter=orthogonalPerimeter;outlineConnect=0;targetShapes=umlLifeline;portConstraint=eastwest;newEdgeStyle={&quot;curved&quot;:0,&quot;rounded&quot;:0};" vertex="1" parent="ywZ4EU8CJQfHJGonzBJp-11">
          <mxGeometry x="45" y="451" width="10" height="92" as="geometry" />
        </mxCell>
        <mxCell id="ywZ4EU8CJQfHJGonzBJp-15" value="" style="endArrow=open;endFill=1;endSize=12;html=1;rounded=0;fontSize=12;curved=1;" edge="1" parent="1">
          <mxGeometry width="160" relative="1" as="geometry">
            <mxPoint x="-59" y="110" as="sourcePoint" />
            <mxPoint x="156" y="110" as="targetPoint" />
          </mxGeometry>
        </mxCell>
        <mxCell id="ywZ4EU8CJQfHJGonzBJp-17" value="" style="endArrow=open;endSize=12;dashed=1;html=1;rounded=0;fontSize=12;curved=1;" edge="1" parent="1" source="ywZ4EU8CJQfHJGonzBJp-13">
          <mxGeometry width="160" relative="1" as="geometry">
            <mxPoint x="90" y="157" as="sourcePoint" />
            <mxPoint x="-57" y="157" as="targetPoint" />
          </mxGeometry>
        </mxCell>
        <mxCell id="ywZ4EU8CJQfHJGonzBJp-18" value="" style="endArrow=open;endFill=1;endSize=12;html=1;rounded=0;fontSize=12;curved=1;" edge="1" parent="1">
          <mxGeometry width="160" relative="1" as="geometry">
            <mxPoint x="-58" y="201" as="sourcePoint" />
            <mxPoint x="157" y="201" as="targetPoint" />
          </mxGeometry>
        </mxCell>
        <mxCell id="ywZ4EU8CJQfHJGonzBJp-19" value="" style="endArrow=open;endSize=12;dashed=1;html=1;rounded=0;fontSize=12;curved=1;" edge="1" parent="1">
          <mxGeometry width="160" relative="1" as="geometry">
            <mxPoint x="154" y="253" as="sourcePoint" />
            <mxPoint x="-60" y="253" as="targetPoint" />
          </mxGeometry>
        </mxCell>
        <mxCell id="ywZ4EU8CJQfHJGonzBJp-20" value="" style="endArrow=open;endFill=1;endSize=12;html=1;rounded=0;fontSize=12;curved=1;" edge="1" parent="1">
          <mxGeometry width="160" relative="1" as="geometry">
            <mxPoint x="-58" y="305" as="sourcePoint" />
            <mxPoint x="157" y="305" as="targetPoint" />
          </mxGeometry>
        </mxCell>
        <mxCell id="ywZ4EU8CJQfHJGonzBJp-21" value="" style="endArrow=open;endFill=1;endSize=12;html=1;rounded=0;fontSize=12;curved=1;" edge="1" parent="1">
          <mxGeometry width="160" relative="1" as="geometry">
            <mxPoint x="169" y="306" as="sourcePoint" />
            <mxPoint x="384" y="306" as="targetPoint" />
          </mxGeometry>
        </mxCell>
        <mxCell id="ywZ4EU8CJQfHJGonzBJp-29" value="" style="endArrow=open;endSize=12;dashed=1;html=1;rounded=0;fontSize=12;curved=1;" edge="1" parent="1" source="ywZ4EU8CJQfHJGonzBJp-11">
          <mxGeometry width="160" relative="1" as="geometry">
            <mxPoint x="156" y="352" as="sourcePoint" />
            <mxPoint x="-58" y="352" as="targetPoint" />
          </mxGeometry>
        </mxCell>
        <mxCell id="ywZ4EU8CJQfHJGonzBJp-31" value="" style="endArrow=open;endFill=1;endSize=12;html=1;rounded=0;fontSize=12;curved=1;" edge="1" parent="1" source="ywZ4EU8CJQfHJGonzBJp-30" target="ywZ4EU8CJQfHJGonzBJp-10">
          <mxGeometry width="160" relative="1" as="geometry">
            <mxPoint x="-58" y="409" as="sourcePoint" />
            <mxPoint x="157" y="409" as="targetPoint" />
          </mxGeometry>
        </mxCell>
        <mxCell id="ywZ4EU8CJQfHJGonzBJp-32" value="" style="endArrow=open;endSize=12;dashed=1;html=1;rounded=0;fontSize=12;curved=1;" edge="1" parent="1">
          <mxGeometry width="160" relative="1" as="geometry">
            <mxPoint x="579.5" y="454" as="sourcePoint" />
            <mxPoint x="-57" y="454" as="targetPoint" />
          </mxGeometry>
        </mxCell>
        <mxCell id="ywZ4EU8CJQfHJGonzBJp-33" value="" style="endArrow=open;endFill=1;endSize=12;html=1;rounded=0;fontSize=12;curved=1;" edge="1" parent="1" target="ywZ4EU8CJQfHJGonzBJp-30">
          <mxGeometry width="160" relative="1" as="geometry">
            <mxPoint x="-58" y="409" as="sourcePoint" />
            <mxPoint x="580" y="409" as="targetPoint" />
          </mxGeometry>
        </mxCell>
        <mxCell id="ywZ4EU8CJQfHJGonzBJp-30" value="" style="html=1;points=[[0,0,0,0,5],[0,1,0,0,-5],[1,0,0,0,5],[1,1,0,0,-5]];perimeter=orthogonalPerimeter;outlineConnect=0;targetShapes=umlLifeline;portConstraint=eastwest;newEdgeStyle={&quot;curved&quot;:0,&quot;rounded&quot;:0};" vertex="1" parent="1">
          <mxGeometry x="577" y="385" width="10" height="84" as="geometry" />
        </mxCell>
        <mxCell id="ywZ4EU8CJQfHJGonzBJp-35" value="" style="endArrow=open;endSize=12;dashed=1;html=1;rounded=0;fontSize=12;curved=1;" edge="1" parent="1">
          <mxGeometry width="160" relative="1" as="geometry">
            <mxPoint x="386.5" y="551" as="sourcePoint" />
            <mxPoint x="-62.5" y="551" as="targetPoint" />
          </mxGeometry>
        </mxCell>
        <mxCell id="ywZ4EU8CJQfHJGonzBJp-36" value="" style="endArrow=open;endFill=1;endSize=12;html=1;rounded=0;fontSize=12;curved=1;" edge="1" parent="1" target="ywZ4EU8CJQfHJGonzBJp-11">
          <mxGeometry width="160" relative="1" as="geometry">
            <mxPoint x="-55" y="519" as="sourcePoint" />
            <mxPoint x="160" y="519" as="targetPoint" />
            <Array as="points">
              <mxPoint x="304" y="519" />
            </Array>
          </mxGeometry>
        </mxCell>
        <mxCell id="ywZ4EU8CJQfHJGonzBJp-37" value="Request Room" style="text;html=1;align=center;verticalAlign=middle;resizable=0;points=[];autosize=1;strokeColor=none;fillColor=none;fontSize=16;" vertex="1" parent="1">
          <mxGeometry x="-32" y="82" width="125" height="31" as="geometry" />
        </mxCell>
        <mxCell id="ywZ4EU8CJQfHJGonzBJp-38" value="Return list" style="text;html=1;align=center;verticalAlign=middle;resizable=0;points=[];autosize=1;strokeColor=none;fillColor=none;fontSize=16;" vertex="1" parent="1">
          <mxGeometry x="-14" y="130" width="90" height="31" as="geometry" />
        </mxCell>
        <mxCell id="ywZ4EU8CJQfHJGonzBJp-39" value="Check Room Availability" style="text;html=1;align=center;verticalAlign=middle;resizable=0;points=[];autosize=1;strokeColor=none;fillColor=none;fontSize=16;" vertex="1" parent="1">
          <mxGeometry x="-55" y="176" width="189" height="31" as="geometry" />
        </mxCell>
        <mxCell id="ywZ4EU8CJQfHJGonzBJp-40" value="&lt;div&gt;Return Status&lt;/div&gt;" style="text;html=1;align=center;verticalAlign=middle;resizable=0;points=[];autosize=1;strokeColor=none;fillColor=none;fontSize=16;" vertex="1" parent="1">
          <mxGeometry x="-16.5" y="228.5" width="116" height="31" as="geometry" />
        </mxCell>
        <mxCell id="ywZ4EU8CJQfHJGonzBJp-41" value="Booking Room" style="text;html=1;align=center;verticalAlign=middle;resizable=0;points=[];autosize=1;strokeColor=none;fillColor=none;fontSize=16;" vertex="1" parent="1">
          <mxGeometry x="-40.5" y="279.5" width="123" height="31" as="geometry" />
        </mxCell>
        <mxCell id="ywZ4EU8CJQfHJGonzBJp-42" value="Send booking information" style="text;html=1;align=center;verticalAlign=middle;resizable=0;points=[];autosize=1;strokeColor=none;fillColor=none;fontSize=16;" vertex="1" parent="1">
          <mxGeometry x="169" y="277" width="199" height="31" as="geometry" />
        </mxCell>
        <mxCell id="ywZ4EU8CJQfHJGonzBJp-43" value="Confirm booking status" style="text;html=1;align=center;verticalAlign=middle;resizable=0;points=[];autosize=1;strokeColor=none;fillColor=none;fontSize=16;" vertex="1" parent="1">
          <mxGeometry x="36.5" y="327.5" width="182" height="31" as="geometry" />
        </mxCell>
        <mxCell id="ywZ4EU8CJQfHJGonzBJp-44" value="Transfer" style="text;html=1;align=center;verticalAlign=middle;resizable=0;points=[];autosize=1;strokeColor=none;fillColor=none;fontSize=16;" vertex="1" parent="1">
          <mxGeometry x="203.5" y="383" width="77" height="31" as="geometry" />
        </mxCell>
        <mxCell id="ywZ4EU8CJQfHJGonzBJp-45" value="Return transaction information" style="text;html=1;align=center;verticalAlign=middle;resizable=0;points=[];autosize=1;strokeColor=none;fillColor=none;fontSize=16;" vertex="1" parent="1">
          <mxGeometry x="64.5" y="425.5" width="232" height="31" as="geometry" />
        </mxCell>
        <mxCell id="ywZ4EU8CJQfHJGonzBJp-46" value="send transaction details" style="text;html=1;align=center;verticalAlign=middle;resizable=0;points=[];autosize=1;strokeColor=none;fillColor=none;fontSize=16;" vertex="1" parent="1">
          <mxGeometry x="45.5" y="491.5" width="186" height="31" as="geometry" />
        </mxCell>
        <mxCell id="ywZ4EU8CJQfHJGonzBJp-47" value="reciept" style="text;html=1;align=center;verticalAlign=middle;resizable=0;points=[];autosize=1;strokeColor=none;fillColor=none;fontSize=16;" vertex="1" parent="1">
          <mxGeometry x="97.5" y="523.5" width="66" height="31" as="geometry" />
        </mxCell>
      </root>
    </mxGraphModel>
  </diagram>
</mxfile>
